<svg viewBox="154.05 352.86 715.91 62.28" xmlns="http://www.w3.org/2000/svg"><path d="m334.78 352.86c-18.96 0-33.12 13.92-34.68 31.08-1.44 17.16 10.319 31.08 29.279 31.08 10.08 0 16.44-4.6793 21.48-8.2793l1.0801-12.121 1.1992-12.84s-25.68.001-25.68.12109l-1.1992 12.959h8.5195l-.24023 4.2012c-1.32.24-2.6398.35937-3.8398.35937-11.52 0-13.799-9.7197-13.799-13.68 0-3.7213 1.1222-7.4417 3.2656-10.453.045-.063.0967-.12125.14258-.18359.25888-.35303.52714-.69973.81445-1.0312.14382-.16558.30229-.3187.45313-.47852.20294-.21539.40155-.43446.61718-.63867.19847-.18779.41399-.35929.62305-.53711.19739-.16792.38888-.34153.5957-.5.19922-.15274.41325-.29002.6211-.43359.23669-.16332.46892-.33162.71679-.48243.20035-.12213.41357-.22818.6211-.34179.27673-.15111.55031-.30614.83984-.44141.18324-.0859.37813-.15706.56641-.23633.338-.14177.67503-.28272 1.0293-.40234.15878-.0539.3263-.0953.48829-.14453.39167-.11845.78677-.23376 1.1973-.32422.16617-.0368.34057-.0598.50977-.0918.42249-.0795.84765-.15425 1.2891-.20312.42854-.0475.86461-.0809 1.3106-.0977.24424-.009.48879-.0195.73828-.0195 6.24 0 12.599 3.2413 17.279 6.3613l1.3203-16.441c-4.44-3.6-10.32-5.7598-17.16-5.7598zm49.996 0c-8.88 0-25.92 4.9212-25.92 20.281 0 5.0004 1.4897 8.4051 3.6953 10.875.00099.002.0254.0449.0254.0449h.0176c6.3813 7.0828 18.701 6.383 18.701 13.32 0 1.92-1.7998 4.3184-6.8398 4.3184-4.92 0-10.681-2.7594-16.561-6.3594l-1.4394 16.561c5.76 2.4 15 3.2402 17.76 3.2402 5.16 0 27.84-1.4406 27.84-20.641 0-4.6264-1.5779-7.9345-3.9023-10.439h.0625c-1.0341-1.1093-2.2262-2.0478-3.4883-2.8828-.0153-.0102-.0315-.0191-.0469-.0293-.32586-.21455-.65148-.42691-.98633-.62696-.36173-.21809-.72839-.42623-1.0976-.6289-.65428-.3562-1.3144-.69271-1.9785-1.0098-.34732-.16686-.69069-.32038-1.0371-.47851-.1729-.0785-.34342-.15767-.51562-.23438-2.3696-1.0601-4.6566-1.9619-6.4609-2.9297-.0603-.0325-.1224-.065-.18164-.0976-.20417-.11217-.4015-.22697-.5918-.3418-.20328-.12318-.39612-.24782-.58203-.375-.15044-.10246-.29342-.20691-.43164-.3125-.20065-.15394-.38977-.31082-.5625-.47266-.11023-.1028-.22027-.20598-.31836-.3125-.0237-.0258-.0474-.0521-.0703-.0781-.29312-.3314-.52565-.68164-.68945-1.0566-.0159-.0365-.0284-.0744-.043-.11133-.058-.14671-.10409-.29856-.14063-.45312-.013-.0552-.0269-.10982-.0371-.16602-.0355-.19531-.0605-.39465-.0605-.60351.00001-2.76 2.8812-4.5586 7.2012-4.5586 5.64 0 14.76 5.3984 14.76 5.3984l1.4395-16.559c-5.16-1.32-8.9995-2.2812-17.52-2.2812zm338.22 0c-17.64 0-33.12 13.92-34.68 31.08-.11346.79417-.11685 1.4871-.11719 2.2695-.00038.004-.002.008-.002.0117v.11914c-.12 16.08 12.478 28.68 29.398 28.68 17.64 0 33.122-13.92 34.682-31.08 1.44-17.16-11.641-31.08-29.281-31.08zm-563.55.86523-5.4004 60.479h17.281l1.9199-21.719h2.2793l.0566.11914h-.0566l10.32 21.721h20.041l-.0586-.1211h.0586l-11.041-23.158c9.6-2.88 14.641-10.321 14.641-19.561 0-8.76-7.081-17.76-17.041-17.76h-21zm57.223 0-5.416 60.496h17.283l5.418-60.496zm25.127 0-5.3984 60.479h17.279l2.7598-30.719 18.48 30.719h17.279l5.4004-60.479h-17.279l-2.8652 30.545-18.375-30.545zm202.16 0-5.4004 60.479h17.279l2.7598-30.719 18.48 30.719h17.279l5.4004-60.479h-17.279l-2.8652 30.545-18.375-30.545zm63.33 0-1.0801 12.959-4.2012 47.52h43.32l1.1992-12.959h-26.039l.96093-10.801h17.039l1.1992-12.959h-17.16l.95508-10.801h25.801l1.1992-12.959h-25.801zm45.203 0-1.2012 12.959h17.281l-4.2012 47.52h17.4l4.1992-47.52h17.16l1.1641-12.561 11.205 60.08h23.881l4.9336-14.547 2.0273 14.547h23.879l21.721-60.479h-18.121l-16.08 48.24-4.0801-29.16h-.24023v-.1211h-14.158l-.0371.1211h-.084l-9.2402 29.879-7.6797-48.959h-52.449zm207.7 0-5.4004 60.479h17.281l1.9199-21.719h2.2793l.0566.11914h-.0566l10.32 21.721h20.041l-.0586-.1211h.0586l-11.041-23.158c9.6-2.88 14.641-10.321 14.641-19.561 0-8.76-7.081-17.76-17.041-17.76h-21zm57.207 0-5.4004 60.479h17.279l2.5215-27.719 5.6387 12.24.7207 1.6797 6.3594 13.799h19.92l-14.76-30.84 20.281-29.639h-19.801l-8.6406 12.719-9.2402 13.561 2.4004-26.279zm-95.602 11.975c7.92 0 13.559 8.2802 12.719 18.24-.84 9.96-8.039 18.121-15.959 18.121-7.44 0-12.84-7.0812-12.84-16.201v-.60023c.12-.48.11914-.84032.11914-1.3203.96-9.96 8.0409-18.119 15.961-18.119-.14026-.0353-.27653-.0602-.41602-.0937.13918-.005.27635-.0273.41602-.0273zm-535.12 1.1055c3 0 5.5195 3.1198 5.5195 5.7598s-2.159 7.1992-6.959 7.1992h-10.801l1.2012-12.84h11.039zm600.75 0c3 0 5.5195 3.1198 5.5195 5.7598s-2.159 7.1992-6.959 7.1992h-10.801l1.2012-12.84h11.039z" fill="#000"/></svg>