<?xml version="1.0" standalone="no"?>
<!DOCTYPE svg PUBLIC "-//W3C//DTD SVG 20010904//EN"
 "http://www.w3.org/TR/2001/REC-SVG-20010904/DTD/svg10.dtd">
<svg version="1.0" xmlns="http://www.w3.org/2000/svg"
 width="400.000000pt" height="400.000000pt" viewBox="0 0 400.000000 400.000000"
 preserveAspectRatio="xMidYMid meet">

<g transform="translate(0.000000,400.000000) scale(0.100000,-0.100000)"
fill="#000000" stroke="none">
<path d="M1937 3858 c-18 -29 -43 -70 -56 -90 -12 -21 -26 -38 -31 -38 -5 0
-15 -2 -23 -5 -8 -4 -44 25 -94 75 -43 44 -87 80 -96 80 -27 0 -48 -32 -83
-125 -37 -98 -32 -90 -59 -99 -14 -4 -44 11 -104 54 -84 61 -119 72 -141 45
-6 -8 -19 -60 -28 -116 -22 -135 -27 -137 -154 -80 -51 23 -99 41 -105 41 -7
0 -22 -9 -33 -20 -18 -18 -20 -28 -14 -120 10 -142 4 -146 -150 -110 -131 32
-150 13 -116 -118 38 -150 32 -158 -110 -148 -92 6 -102 4 -120 -14 -27 -27
-26 -38 21 -138 58 -124 55 -131 -81 -154 -153 -25 -160 -40 -71 -169 76 -108
74 -119 -23 -155 -109 -41 -135 -54 -141 -75 -9 -27 6 -48 85 -123 92 -87 91
-95 -27 -168 -77 -48 -88 -59 -91 -86 -3 -28 2 -34 65 -75 37 -24 78 -49 90
-56 13 -6 26 -23 29 -38 6 -23 -2 -34 -69 -97 -42 -39 -79 -81 -82 -93 -8 -30
23 -56 98 -83 111 -38 115 -41 120 -66 3 -18 -11 -46 -54 -107 -33 -45 -59
-92 -59 -104 0 -29 33 -49 90 -58 25 -3 68 -11 97 -16 71 -14 74 -33 23 -144
-22 -48 -40 -95 -40 -106 0 -10 11 -26 25 -35 22 -14 41 -16 121 -10 136 10
140 5 103 -149 -19 -80 -19 -89 -4 -111 19 -29 22 -29 137 -3 72 16 98 18 117
9 24 -11 24 -12 18 -114 -5 -83 -4 -106 9 -124 21 -31 43 -28 146 18 120 55
128 50 151 -85 9 -53 21 -103 28 -111 21 -26 58 -15 135 41 77 55 112 66 132
42 6 -7 25 -51 42 -97 50 -137 68 -140 174 -31 98 100 105 99 177 -16 29 -46
61 -89 72 -94 29 -16 59 10 113 100 68 110 76 110 174 8 74 -77 80 -81 107
-72 23 9 33 24 61 95 42 111 45 114 74 118 18 2 49 -14 103 -52 117 -85 144
-74 164 64 22 142 26 145 151 90 50 -22 100 -40 110 -40 11 0 27 11 36 25 14
21 15 41 9 125 -7 99 -6 100 18 111 20 9 44 7 118 -11 150 -35 164 -21 129
129 -19 80 -20 97 -9 118 13 24 14 24 116 17 91 -6 106 -5 123 11 26 23 25 43
-4 107 -51 113 -56 129 -46 149 11 20 54 33 140 44 67 8 100 27 100 59 0 13
-25 59 -56 101 -38 54 -54 85 -52 103 4 29 7 32 118 74 71 28 86 38 95 62 9
27 6 32 -72 105 -103 99 -103 108 8 176 134 81 135 103 8 182 -117 73 -118 81
-18 178 109 107 106 125 -31 175 -46 17 -90 36 -97 42 -24 20 -13 53 42 131
56 78 67 115 41 136 -8 7 -58 19 -111 28 -135 23 -140 31 -85 151 46 103 49
125 18 146 -18 13 -41 14 -124 9 -103 -6 -103 -6 -114 19 -9 19 -7 43 9 112
26 111 26 122 -3 141 -21 14 -31 14 -110 -5 -155 -36 -161 -32 -151 105 6 79
5 99 -9 120 -9 14 -24 25 -32 25 -9 0 -57 -18 -106 -40 -50 -22 -96 -40 -104
-40 -27 0 -41 31 -53 116 -15 100 -31 134 -64 134 -12 0 -60 -27 -107 -60 -47
-33 -91 -58 -98 -55 -8 3 -17 5 -21 5 -4 0 -23 41 -42 91 -35 95 -58 129 -87
129 -9 0 -51 -36 -93 -81 -103 -109 -107 -108 -204 61 -22 38 -38 50 -66 50
-23 0 -34 -9 -62 -52z m107 -293 c108 -51 72 -215 -47 -215 -49 0 -81 19 -102
60 -32 63 -7 134 57 159 34 14 56 13 92 -4z m-208 -275 c102 -105 142 -128
190 -109 14 5 72 54 129 109 l103 101 64 -15 c293 -68 579 -247 768 -483 54
-67 130 -177 130 -187 0 -3 -31 -74 -70 -159 -77 -170 -85 -210 -47 -251 12
-14 83 -52 157 -85 l135 -60 3 -133 c4 -160 -15 -287 -64 -438 -59 -179 -167
-371 -282 -498 l-47 -54 -137 28 c-202 42 -211 36 -258 -180 -16 -77 -32 -141
-34 -143 -2 -3 -45 -20 -94 -38 -253 -95 -565 -110 -836 -39 -88 22 -213 68
-228 83 -5 4 -22 68 -38 141 -36 157 -41 171 -82 194 -29 18 -34 17 -169 -10
l-139 -29 -32 39 c-243 291 -358 591 -358 941 0 61 3 119 6 130 4 14 43 37
137 78 83 37 139 68 151 84 28 38 17 90 -54 247 -71 158 -73 135 20 271 135
197 367 382 603 479 70 29 236 82 269 85 4 1 51 -44 104 -99z m-1152 -754 c45
-19 66 -52 66 -104 0 -37 -6 -50 -34 -78 -36 -36 -78 -44 -130 -24 -64 24 -83
124 -34 177 40 44 77 52 132 29z m2732 -15 c35 -22 60 -78 50 -116 -10 -40
-54 -84 -92 -91 -72 -13 -134 40 -134 116 0 34 6 48 34 76 40 40 92 46 142 15z
m-2186 -1609 c60 -61 44 -147 -34 -186 -32 -16 -44 -17 -76 -7 -71 21 -102
105 -63 171 21 36 47 48 101 49 35 1 49 -5 72 -27z m1655 14 c40 -17 65 -60
65 -112 0 -51 -53 -104 -104 -104 -53 0 -95 25 -113 67 -25 62 -3 115 62 151
27 15 49 15 90 -2z"/>
<path d="M1466 2673 c-7 -61 -26 -265 -76 -833 -22 -250 -42 -479 -46 -507
l-5 -53 205 0 c189 0 206 1 207 18 0 9 10 125 22 257 l22 240 29 0 c27 0 32
-9 135 -225 59 -124 114 -240 122 -257 l14 -33 237 0 c131 0 238 1 238 3 0 1
-56 121 -125 266 -69 144 -125 269 -125 276 0 7 12 16 28 20 47 12 137 72 191
130 205 216 140 582 -126 708 l-68 32 -437 3 -436 3 -6 -48z m715 -286 c72
-48 86 -140 35 -218 -40 -60 -73 -69 -243 -69 l-149 0 13 143 c8 78 16 148 18
155 3 9 42 12 148 12 133 0 147 -2 178 -23z"/>
</g>
</svg>
